<svg id="Layer_1" data-name="Layer 1" xmlns="http://www.w3.org/2000/svg" viewBox="0 0 9.66 10.12"><defs><style>.cls-1{fill:#ee1e38;}</style></defs><path class="cls-1" d="M8.79,3.93,8.3,3.74a.59.59,0,0,0-.56,0v.11c-.05.13-.05.18-.16.25a.55.55,0,0,1-.36.1.42.42,0,0,1-.09-.83c.25-.08.34.07.45.07A2.37,2.37,0,0,1,8,3.32c.19,0,2.49.91,2.7,1s.51.16.52.54,0,.61,0,.91a.54.54,0,1,0,.64.53.53.53,0,0,0-.44-.53v-1L12,4.57l0,0-.22-.09-.3-.12L9.57,3.63,8.35,3.17l-.6-.23-.31-.12c-.14,0-.17-.09-.31,0-.8.31-1.64.61-2.43.92-.19.07-2.28.87-2.41,1h0l2.06.78c.71.27,1.4.5,2.11.76.24.09.16.08.51,0l3.68-1.34.19-.09c-.07-.06-.88-.35-1-.4-.35-.13-.7-.29-1.05-.4Z" transform="translate(-2.29 -2.76)"/><path class="cls-1" d="M9.59,12.15a3.3,3.3,0,0,0-.26-.39l-.56.3a3.72,3.72,0,0,1-4-.55c-.08-.06-.15-.14-.22-.2A4.11,4.11,0,0,1,4,10.57a3.55,3.55,0,0,1-.49-2.09A3.42,3.42,0,0,1,4.23,6.6c.12-.15.1-.07.11-.32a1.1,1.1,0,0,0,0-.41c-.1,0-.14.07-.27.2A5,5,0,0,0,3.47,7a4.14,4.14,0,0,0,3,5.86A4.35,4.35,0,0,0,9,12.51a2.81,2.81,0,0,0,.62-.36Z" transform="translate(-2.29 -2.76)"/><path class="cls-1" d="M6.51,11.56a5.07,5.07,0,0,1-.59-1.09A4.91,4.91,0,0,1,5.6,9.1h-1a2.93,2.93,0,0,0,.68,1.52,3.53,3.53,0,0,0,.9.77,3,3,0,0,0,.36.18Z" transform="translate(-2.29 -2.76)"/><path class="cls-1" d="M7.05,11.56V9.09H6a4.92,4.92,0,0,0,.64,2A2.6,2.6,0,0,0,7.05,11.56Z" transform="translate(-2.29 -2.76)"/><path class="cls-1" d="M7.49,11.55l.34-.49a4.72,4.72,0,0,0,.64-2h-1C7.49,9.52,7.44,11.34,7.49,11.55Z" transform="translate(-2.29 -2.76)"/><path class="cls-1" d="M4.55,8.7h1a5.51,5.51,0,0,1,.18-1.26c-.34-.07-.76-.25-.86-.27s-.1.21-.14.32a2.06,2.06,0,0,0-.12.35,2.75,2.75,0,0,0-.11.86Z" transform="translate(-2.29 -2.76)"/><path class="cls-1" d="M6.65,6.71,4.78,6c0,.54,0,.59.29.75a4.85,4.85,0,0,0,1.69.39c.36,0,.7,0,1,0a5.37,5.37,0,0,0,1.77-.5c.11-.07.14-.06.14-.22-.16,0-.84.35-.94.29s.3-.28.44-.33c.56-.22.51-.13.51-.37-.16,0-.71.25-.92.33s-.25.1-.23-.11a9.82,9.82,0,0,1,1.15-.45V5.66l-2.26.79a6.16,6.16,0,0,1-.8.26Z" transform="translate(-2.29 -2.76)"/><path class="cls-1" d="M6,8.7h1A8,8,0,0,0,7,7.6l-.82-.07A4,4,0,0,0,6,8.7Z" transform="translate(-2.29 -2.76)"/><path class="cls-1" d="M7.48,7.6V8.7h1a3.79,3.79,0,0,0-.19-1.18Z" transform="translate(-2.29 -2.76)"/><path class="cls-1" d="M8.74,11.74a2.57,2.57,0,0,0,1-.66,5.78,5.78,0,0,0,.5-.69A3.72,3.72,0,0,0,10.6,8a4,4,0,0,0-.54-1.37c-.09.19-.12.1,0,.29a3.94,3.94,0,0,1,.37,1,3.45,3.45,0,0,1-.71,2.88,1.5,1.5,0,0,1-.21.24,4.17,4.17,0,0,1-.47.45l-.2.15,0,0h0Z" transform="translate(-2.29 -2.76)"/><path class="cls-1" d="M5.83,11.77A3.51,3.51,0,0,1,4.51,6.88a.36.36,0,0,0-.1-.15,3.73,3.73,0,0,0-.54,1.36A3.43,3.43,0,0,0,5.2,11.45a2.08,2.08,0,0,0,.63.32Z" transform="translate(-2.29 -2.76)"/><path class="cls-1" d="M9.05,9.09H8.91a4.36,4.36,0,0,1-.31,1.36,4.34,4.34,0,0,0-.17.4l-.33.54c-.07.11-.09.09-.13.17a3,3,0,0,0,1-.65,3.2,3.2,0,0,0,.95-1.82Z" transform="translate(-2.29 -2.76)"/><path class="cls-1" d="M8.93,8.67c.05.05.07,0,.23,0h.76a3.06,3.06,0,0,0-.38-1.56c-.1,0-.29.1-.4.13a1.77,1.77,0,0,1-.41.12l0,.15c0,.13.08.39.1.55s0,.47,0,.57Z" transform="translate(-2.29 -2.76)"/><path class="cls-1" d="M9.38,5.6a10.77,10.77,0,0,0,1.49-.54V4.94l-1.14.44C9.61,5.43,9.4,5.45,9.38,5.6Z" transform="translate(-2.29 -2.76)"/></svg>